<mxfile host="app.diagrams.net" modified="2022-05-25T01:48:42.346Z" agent="5.0 (Windows NT 10.0; Win64; x64) AppleWebKit/537.36 (KHTML, like Gecko) Chrome/101.0.4951.67 Safari/537.36" etag="WYGcPs5v_7dmJsiOQb2F" version="18.1.2" type="github">
  <diagram id="GZsz-lujuDWjq41wjC5V" name="Page-1">
    <mxGraphModel dx="1230" dy="786" grid="1" gridSize="10" guides="1" tooltips="1" connect="1" arrows="1" fold="1" page="1" pageScale="1" pageWidth="827" pageHeight="1169" math="0" shadow="0">
      <root>
        <mxCell id="0" />
        <mxCell id="1" parent="0" />
        <mxCell id="vfdzDoIzdjUTpLNnpWvX-1" style="edgeStyle=orthogonalEdgeStyle;rounded=0;orthogonalLoop=1;jettySize=auto;html=1;entryX=0;entryY=0.5;entryDx=0;entryDy=0;" parent="1" source="vfdzDoIzdjUTpLNnpWvX-2" target="vfdzDoIzdjUTpLNnpWvX-6" edge="1">
          <mxGeometry relative="1" as="geometry" />
        </mxCell>
        <mxCell id="vfdzDoIzdjUTpLNnpWvX-2" value="Actor" style="shape=umlActor;verticalLabelPosition=bottom;verticalAlign=top;html=1;outlineConnect=0;" parent="1" vertex="1">
          <mxGeometry x="60" y="190" width="30" height="60" as="geometry" />
        </mxCell>
        <mxCell id="vfdzDoIzdjUTpLNnpWvX-3" style="edgeStyle=orthogonalEdgeStyle;rounded=0;orthogonalLoop=1;jettySize=auto;html=1;entryX=0.5;entryY=0;entryDx=0;entryDy=0;" parent="1" source="vfdzDoIzdjUTpLNnpWvX-6" target="vfdzDoIzdjUTpLNnpWvX-10" edge="1">
          <mxGeometry relative="1" as="geometry" />
        </mxCell>
        <mxCell id="vfdzDoIzdjUTpLNnpWvX-4" style="edgeStyle=orthogonalEdgeStyle;rounded=0;orthogonalLoop=1;jettySize=auto;html=1;entryX=0;entryY=0.5;entryDx=0;entryDy=0;" parent="1" target="vfdzDoIzdjUTpLNnpWvX-14" edge="1">
          <mxGeometry relative="1" as="geometry">
            <mxPoint x="250" y="220" as="sourcePoint" />
            <Array as="points">
              <mxPoint x="290" y="220" />
              <mxPoint x="290" y="130" />
            </Array>
          </mxGeometry>
        </mxCell>
        <mxCell id="vfdzDoIzdjUTpLNnpWvX-5" style="edgeStyle=orthogonalEdgeStyle;rounded=0;orthogonalLoop=1;jettySize=auto;html=1;exitX=1;exitY=0.5;exitDx=0;exitDy=0;" parent="1" source="vfdzDoIzdjUTpLNnpWvX-6" target="vfdzDoIzdjUTpLNnpWvX-16" edge="1">
          <mxGeometry relative="1" as="geometry">
            <mxPoint x="310" y="220" as="sourcePoint" />
          </mxGeometry>
        </mxCell>
        <mxCell id="vfdzDoIzdjUTpLNnpWvX-6" value="login" style="rounded=0;whiteSpace=wrap;html=1;" parent="1" vertex="1">
          <mxGeometry x="140" y="190" width="120" height="60" as="geometry" />
        </mxCell>
        <mxCell id="vfdzDoIzdjUTpLNnpWvX-7" value="APP de localizao de descartes de produtos nao biodegradaveis" style="text;html=1;strokeColor=none;fillColor=none;align=center;verticalAlign=middle;whiteSpace=wrap;rounded=0;" parent="1" vertex="1">
          <mxGeometry x="320" y="30" width="200" height="30" as="geometry" />
        </mxCell>
        <mxCell id="vfdzDoIzdjUTpLNnpWvX-8" value="- remedios&lt;br&gt;- pilhas&lt;br&gt;- baterias" style="text;html=1;strokeColor=none;fillColor=none;align=center;verticalAlign=middle;whiteSpace=wrap;rounded=0;" parent="1" vertex="1">
          <mxGeometry x="680" y="30" width="60" height="30" as="geometry" />
        </mxCell>
        <mxCell id="vfdzDoIzdjUTpLNnpWvX-9" style="edgeStyle=orthogonalEdgeStyle;rounded=0;orthogonalLoop=1;jettySize=auto;html=1;" parent="1" target="vfdzDoIzdjUTpLNnpWvX-12" edge="1">
          <mxGeometry relative="1" as="geometry">
            <mxPoint x="210" y="290" as="sourcePoint" />
          </mxGeometry>
        </mxCell>
        <mxCell id="vfdzDoIzdjUTpLNnpWvX-10" value="" style="rhombus;whiteSpace=wrap;html=1;" parent="1" vertex="1">
          <mxGeometry x="160" y="270" width="80" height="80" as="geometry" />
        </mxCell>
        <mxCell id="vfdzDoIzdjUTpLNnpWvX-11" style="edgeStyle=orthogonalEdgeStyle;rounded=0;orthogonalLoop=1;jettySize=auto;html=1;entryX=0.5;entryY=1;entryDx=0;entryDy=0;strokeColor=#9AC7BF;" parent="1" source="vfdzDoIzdjUTpLNnpWvX-12" target="vfdzDoIzdjUTpLNnpWvX-16" edge="1">
          <mxGeometry relative="1" as="geometry" />
        </mxCell>
        <mxCell id="vfdzDoIzdjUTpLNnpWvX-12" value="cadastro (endereço principal)" style="rounded=0;whiteSpace=wrap;html=1;" parent="1" vertex="1">
          <mxGeometry x="140" y="370" width="120" height="60" as="geometry" />
        </mxCell>
        <mxCell id="vfdzDoIzdjUTpLNnpWvX-13" value="N" style="text;html=1;strokeColor=none;fillColor=none;align=center;verticalAlign=middle;whiteSpace=wrap;rounded=0;" parent="1" vertex="1">
          <mxGeometry x="190" y="340" width="60" height="30" as="geometry" />
        </mxCell>
        <mxCell id="vfdzDoIzdjUTpLNnpWvX-14" value="cadastro de novos locais (gera pontos)" style="rounded=0;whiteSpace=wrap;html=1;" parent="1" vertex="1">
          <mxGeometry x="330" y="100" width="120" height="60" as="geometry" />
        </mxCell>
        <mxCell id="vfdzDoIzdjUTpLNnpWvX-15" style="edgeStyle=orthogonalEdgeStyle;rounded=0;orthogonalLoop=1;jettySize=auto;html=1;" parent="1" source="vfdzDoIzdjUTpLNnpWvX-16" target="vfdzDoIzdjUTpLNnpWvX-18" edge="1">
          <mxGeometry relative="1" as="geometry" />
        </mxCell>
        <mxCell id="vfdzDoIzdjUTpLNnpWvX-16" value="filtrar por produto(s) escolhido (filtro futuro de limite de distancia (max default 5km))" style="rounded=0;whiteSpace=wrap;html=1;" parent="1" vertex="1">
          <mxGeometry x="330" y="190" width="120" height="60" as="geometry" />
        </mxCell>
        <mxCell id="vfdzDoIzdjUTpLNnpWvX-17" style="edgeStyle=orthogonalEdgeStyle;rounded=0;orthogonalLoop=1;jettySize=auto;html=1;entryX=0;entryY=0.5;entryDx=0;entryDy=0;strokeColor=#171717;" parent="1" source="vfdzDoIzdjUTpLNnpWvX-18" target="vfdzDoIzdjUTpLNnpWvX-20" edge="1">
          <mxGeometry relative="1" as="geometry" />
        </mxCell>
        <mxCell id="vfdzDoIzdjUTpLNnpWvX-18" value="Escolher endereço principal ou outro endereço&amp;nbsp;" style="rounded=0;whiteSpace=wrap;html=1;" parent="1" vertex="1">
          <mxGeometry x="480" y="190" width="120" height="60" as="geometry" />
        </mxCell>
        <mxCell id="vfdzDoIzdjUTpLNnpWvX-19" style="edgeStyle=orthogonalEdgeStyle;rounded=0;orthogonalLoop=1;jettySize=auto;html=1;entryX=0;entryY=0.5;entryDx=0;entryDy=0;strokeColor=#171717;" parent="1" source="vfdzDoIzdjUTpLNnpWvX-20" target="vfdzDoIzdjUTpLNnpWvX-21" edge="1">
          <mxGeometry relative="1" as="geometry" />
        </mxCell>
        <mxCell id="vfdzDoIzdjUTpLNnpWvX-20" value="Retorno de lista" style="rounded=0;whiteSpace=wrap;html=1;" parent="1" vertex="1">
          <mxGeometry x="630" y="190" width="120" height="60" as="geometry" />
        </mxCell>
        <mxCell id="vfdzDoIzdjUTpLNnpWvX-21" value="Detalhes do local" style="rounded=0;whiteSpace=wrap;html=1;" parent="1" vertex="1">
          <mxGeometry x="780" y="190" width="120" height="60" as="geometry" />
        </mxCell>
        <mxCell id="vfdzDoIzdjUTpLNnpWvX-22" value="frontend Flutter" style="text;html=1;strokeColor=none;fillColor=none;align=center;verticalAlign=middle;whiteSpace=wrap;rounded=0;" parent="1" vertex="1">
          <mxGeometry x="940" y="20" width="110" height="30" as="geometry" />
        </mxCell>
        <mxCell id="vfdzDoIzdjUTpLNnpWvX-23" value="backend Python" style="text;html=1;strokeColor=none;fillColor=none;align=center;verticalAlign=middle;whiteSpace=wrap;rounded=0;" parent="1" vertex="1">
          <mxGeometry x="940" y="50" width="110" height="30" as="geometry" />
        </mxCell>
      </root>
    </mxGraphModel>
  </diagram>
</mxfile>
